<svg width="32" height="32" viewBox="0 0 32 32" fill="none" xmlns="http://www.w3.org/2000/svg">
  <!-- Background bleu -->
  <rect width="32" height="32" rx="6" fill="#3B82F6"/>
  
  <!-- Dent principale (forme de molaire) -->
  <path d="M16 3C11 3 7 7 7 12C7 16 9 20 16 24C23 20 25 16 25 12C25 7 21 3 16 3Z" fill="#FFFFFF" stroke="#E5E7EB" stroke-width="0.5"/>
  
  <!-- Racines de la dent -->
  <path d="M14 24C14 24 15 26 15 28C15 29 14.5 29.5 14 29.5C13.5 29.5 13 29 13 28C13 26 14 24 14 24Z" fill="#FFFFFF"/>
  <path d="M18 24C18 24 19 26 19 28C19 29 18.5 29.5 18 29.5C17.5 29.5 17 29 17 28C17 26 18 24 18 24Z" fill="#FFFFFF"/>
  
  <!-- Yeux -->
  <ellipse cx="13" cy="9" rx="1.5" ry="2" fill="#1E40AF"/>
  <ellipse cx="19" cy="9" rx="1.5" ry="2" fill="#1E40AF"/>
  
  <!-- Joues roses -->
  <circle cx="11" cy="13" r="1.5" fill="#FBB6CE"/>
  <circle cx="21" cy="13" r="1.5" fill="#FBB6CE"/>
  
  <!-- Étoiles/étincelles -->
  <g fill="#FCD34D">
    <!-- Étoile en haut à droite -->
    <path d="M24 6L25 8L27 8L25.5 9.5L26 11.5L24 10L22 11.5L22.5 9.5L21 8L23 8L24 6Z"/>
    <!-- Étoile en bas à gauche -->
    <path d="M8 20L9 22L11 22L9.5 23.5L10 25.5L8 24L6 25.5L6.5 23.5L5 22L7 22L8 20Z"/>
  </g>
</svg>
