<svg width="32" height="32" viewBox="0 0 32 32" fill="none" xmlns="http://www.w3.org/2000/svg">
  <!-- Dent principale -->
  <path d="M16 2C12 2 8 6 8 12C8 16 10 20 16 24C22 20 24 16 24 12C24 6 20 2 16 2Z" fill="#3B82F6" stroke="#1E40AF" stroke-width="1"/>
  
  <!-- Racine de la dent -->
  <path d="M16 24C16 24 18 26 18 28C18 29 17 30 16 30C15 30 14 29 14 28C14 26 16 24 16 24Z" fill="#3B82F6" stroke="#1E40AF" stroke-width="1"/>
  
  <!-- Détails de la dent -->
  <circle cx="13" cy="8" r="1" fill="#FFFFFF"/>
  <circle cx="19" cy="8" r="1" fill="#FFFFFF"/>
  <path d="M12 12C12 12 14 14 16 14C18 14 20 12 20 12" stroke="#FFFFFF" stroke-width="1" fill="none"/>
</svg>
